<svg id="call_prim" class="info-item" enable-background="new 0 0 512 512" viewBox="0 0 512 512" xmlns="http://www.w3.org/2000/svg">
<g><path d="m63.639 245.861c4.143 0 7.5-3.357 7.5-7.5v-125.774c0-22.854 18.594-41.448 41.448-41.448h111.759l-10.102 10.103c-2.929 2.929-2.929 7.678.001 10.606 2.929 2.928 7.677 2.928 10.606-.001l22.899-22.899c2.562-2.461 3.225-7.481.006-10.612l-22.904-22.904c-2.93-2.928-7.678-2.928-10.607 0-2.929 2.93-2.929 7.678 0 10.607l10.101 10.101h-111.759c-31.126 0-56.448 25.322-56.448 56.448v125.774c0 4.142 3.357 7.499 7.5 7.499zm329.572-245.861c-16.737 0-32.923 3.414-48.106 10.146-3.787 1.68-5.495 6.11-3.816 9.896 1.68 3.787 6.108 5.491 9.896 3.816 13.256-5.878 27.396-8.858 42.026-8.858 57.229 0 103.789 46.56 103.789 103.789 0 25.034-8.909 48.026-23.724 65.974-6.079-21.271-20.379-39.233-39.947-49.951 5.301-7.776 8.406-17.163 8.406-27.263v-13.842c0-26.757-21.768-48.525-48.524-48.525s-48.524 21.769-48.524 48.525v13.842c0 10.104 3.108 19.495 8.413 27.272-5.78 3.179-11.172 7.024-16.091 11.524-11.449 10.471-19.647 23.77-23.861 38.42-14.816-17.947-23.726-40.941-23.726-65.977 0-29.382 12.536-57.513 34.395-77.18 3.079-2.771 3.329-7.513.559-10.592-2.771-3.08-7.514-3.33-10.592-.559-25.015 22.507-39.361 54.702-39.361 88.33 0 65.329 54.127 118.789 118.789 118.789 64.671 0 118.789-53.392 118.789-118.789-.001-65.499-53.289-118.787-118.79-118.787zm-33.524 93.707c0-18.486 15.039-33.525 33.524-33.525s33.524 15.039 33.524 33.525v13.842c0 18.485-15.039 33.524-33.524 33.524s-33.524-15.039-33.524-33.524zm33.524 128.871c-25.762 0-49.358-9.438-67.522-25.033 2.33-15.388 9.849-29.525 21.444-40.131 5.021-4.593 10.638-8.358 16.726-11.259 8.157 6.217 18.328 9.918 29.352 9.918 11.029 0 21.205-3.705 29.363-9.927 20.541 9.764 34.773 28.919 38.16 51.398-18.164 15.596-41.761 25.034-67.523 25.034zm-67.422 103.213c5.262-5.021 6.428-12.936 2.834-19.248l-13.951-24.501c-2.396-4.205-6.508-7.02-11.282-7.72-4.79-.7-9.547.819-13.061 4.172l-6.945 6.626c-.229.219-.549.261-.761.097-7.929-6.119-14.54-13.572-19.648-22.154-5.645-9.482-9.221-19.918-10.627-31.016-.047-.373.183-.746.522-.85l9.131-2.785c9.471-2.825 14.018-14.379 9.087-22.906l-13.954-24.504c-3.635-6.381-11.071-9.347-18.089-7.206-19.209 5.859-32.726 23.326-33.636 43.466-.79 17.51 3.277 36.598 11.762 55.201 1.719 3.769 6.168 5.431 9.937 3.712 3.769-1.72 5.431-6.168 3.712-9.937-7.396-16.217-11.099-33.37-10.426-48.3.624-13.811 9.878-25.784 23.027-29.795.268-.077.535.028.679.281l13.953 24.503c.263.411-.103 1.063-.429 1.137l-9.131 2.785c-7.358 2.245-11.996 9.429-11.026 17.083 1.667 13.156 5.913 25.538 12.619 36.804 6.079 10.211 13.942 19.078 23.372 26.355 6.117 4.722 14.647 4.254 20.278-1.117l6.946-6.627c.199-.239.814-.199.954.117l13.951 24.499c.174.306.107.725-.154.975-9.977 9.517-24.76 11.663-36.792 5.346-10.972-5.761-21.634-14.875-30.833-26.354-2.59-3.231-7.309-3.756-10.542-1.163-3.232 2.59-3.754 7.31-1.163 10.542 10.479 13.08 22.778 23.542 35.564 30.257 17.712 9.301 39.47 6.206 54.122-7.775zm-207-51.369c-65.501 0-118.789 53.288-118.789 118.789 0 65.159 53.884 118.789 118.789 118.789 64.749 0 118.789-53.569 118.789-118.789 0-65.501-53.288-118.789-118.789-118.789zm0 222.578c-25.761 0-49.357-9.438-67.521-25.032 2.329-15.383 9.847-29.518 21.44-40.12 5.045-4.607 10.665-8.375 16.736-11.264 8.155 6.213 18.324 9.913 29.345 9.913 11.026 0 21.199-3.703 29.357-9.922 20.546 9.746 34.781 28.898 38.168 51.39-18.164 15.596-41.762 25.035-67.525 25.035zm-33.524-115.029v-13.842c0-18.486 15.039-33.525 33.524-33.525s33.524 15.039 33.524 33.525v13.842c0 18.486-15.039 33.525-33.524 33.525s-33.524-15.039-33.524-33.525zm113.592 77.21c-6.079-21.279-20.38-39.238-39.951-49.944 5.302-7.776 8.407-17.165 8.407-27.266v-13.842c0-26.757-21.768-48.525-48.524-48.525s-48.524 21.769-48.524 48.525v13.842c0 10.107 3.11 19.5 8.418 27.28-5.765 3.171-11.157 7.017-16.093 11.525-11.45 10.472-19.647 23.768-23.861 38.415-14.818-17.948-23.729-40.943-23.729-65.98 0-57.229 46.56-103.789 103.789-103.789s103.789 46.56 103.789 103.789c0 25.033-8.908 48.023-23.721 65.97zm249.504-193.042c-4.143 0-7.5 3.357-7.5 7.5v125.774c0 22.854-18.594 41.448-41.448 41.448h-110.048l10.102-10.103c2.929-2.929 2.929-7.678-.001-10.606-2.928-2.928-7.677-2.929-10.606.001l-22.899 22.899c-2.561 2.461-3.225 7.481-.006 10.612l22.904 22.904c2.93 2.928 7.679 2.93 10.607 0s2.929-7.678 0-10.607l-10.101-10.101h110.047c31.126 0 56.448-25.322 56.448-56.448v-125.773c.001-4.143-3.356-7.5-7.499-7.5z" fill="#778899"></path></g></svg>