<svg id="phone_book" class="info-item" enable-background="new 0 0 512 512" viewBox="0 0 512 512" xmlns="http://www.w3.org/2000/svg">
<g><path d="m504.5 367.28c4.142 0 7.5-3.357 7.5-7.5v-279.14c0-20.678-16.822-37.5-37.5-37.5h-31v-13.14c0-16.542-13.458-30-30-30s-30 13.458-30 30v13.14h-255v-13.14c0-16.542-13.458-30-30-30s-30 13.458-30 30v13.14h-31c-20.678 0-37.5 16.822-37.5 37.5v393.86c0 20.678 16.822 37.5 37.5 37.5h437c20.678 0 37.5-16.822 37.5-37.5v-79.72c0-4.143-3.358-7.5-7.5-7.5s-7.5 3.357-7.5 7.5v79.72c0 12.406-10.093 22.5-22.5 22.5h-437c-12.407 0-22.5-10.094-22.5-22.5v-327.62h49.869c4.142 0 7.5-3.357 7.5-7.5s-3.358-7.5-7.5-7.5h-49.869v-51.24c0-12.406 10.093-22.5 22.5-22.5h31v13.134c0 16.542 13.458 30 30 30s30-13.458 30-30v-13.134h255v13.134c0 16.542 13.458 30 30 30s30-13.458 30-30v-13.134h31c12.407 0 22.5 10.094 22.5 22.5v51.24h-397.131c-4.142 0-7.5 3.357-7.5 7.5s3.358 7.5 7.5 7.5h397.131v212.9c0 4.143 3.358 7.5 7.5 7.5zm-391-296.007c0 8.271-6.729 15-15 15s-15-6.729-15-15v-41.273c0-8.271 6.729-15 15-15s15 6.729 15 15zm315 0c0 8.271-6.729 15-15 15s-15-6.729-15-15v-41.273c0-8.271 6.729-15 15-15s15 6.729 15 15zm-307.5 124.167c0-9.649-7.851-17.5-17.5-17.5h-41c-9.649 0-17.5 7.851-17.5 17.5v41c0 9.649 7.851 17.5 17.5 17.5h41c9.649 0 17.5-7.851 17.5-17.5zm-15 41c0 1.379-1.122 2.5-2.5 2.5h-41c-1.378 0-2.5-1.121-2.5-2.5v-41c0-1.379 1.122-2.5 2.5-2.5h41c1.378 0 2.5 1.121 2.5 2.5zm361 65c0-9.649-7.851-17.5-17.5-17.5h-41c-9.649 0-17.5 7.851-17.5 17.5v40.999c0 9.649 7.851 17.5 17.5 17.5h41c9.649 0 17.5-7.851 17.5-17.5zm-15 40.999c0 1.379-1.122 2.5-2.5 2.5h-41c-1.378 0-2.5-1.121-2.5-2.5v-40.999c0-1.379 1.122-2.5 2.5-2.5h41c1.378 0 2.5 1.121 2.5 2.5zm-2.5 47.5h-41c-9.649 0-17.5 7.851-17.5 17.5v41c0 9.649 7.851 17.5 17.5 17.5h41c9.649 0 17.5-7.851 17.5-17.5v-41c0-9.649-7.851-17.5-17.5-17.5zm2.5 58.5c0 1.379-1.122 2.5-2.5 2.5h-41c-1.378 0-2.5-1.121-2.5-2.5v-41c0-1.379 1.122-2.5 2.5-2.5h41c1.378 0 2.5 1.121 2.5 2.5zm-331-146.999c0-9.649-7.851-17.5-17.5-17.5h-41c-9.649 0-17.5 7.851-17.5 17.5v40.999c0 9.649 7.851 17.5 17.5 17.5h41c9.649 0 17.5-7.851 17.5-17.5zm-15 40.999c0 1.379-1.122 2.5-2.5 2.5h-41c-1.378 0-2.5-1.121-2.5-2.5v-40.999c0-1.379 1.122-2.5 2.5-2.5h41c1.378 0 2.5 1.121 2.5 2.5zm-2.5 47.5h-41c-9.649 0-17.5 7.851-17.5 17.5v41c0 9.649 7.851 17.5 17.5 17.5h41c9.649 0 17.5-7.851 17.5-17.5v-41c0-9.649-7.851-17.5-17.5-17.5zm2.5 58.5c0 1.379-1.122 2.5-2.5 2.5h-41c-1.378 0-2.5-1.121-2.5-2.5v-41c0-1.379 1.122-2.5 2.5-2.5h41c1.378 0 2.5 1.121 2.5 2.5zm361-252.999c0-9.649-7.851-17.5-17.5-17.5h-41c-9.649 0-17.5 7.851-17.5 17.5v41c0 9.649 7.851 17.5 17.5 17.5h41c9.649 0 17.5-7.851 17.5-17.5zm-15 41c0 1.379-1.122 2.5-2.5 2.5h-41c-1.378 0-2.5-1.121-2.5-2.5v-41c0-1.379 1.122-2.5 2.5-2.5h41c1.378 0 2.5 1.121 2.5 2.5zm-180.03 42.424 12.25 2.837c11.179 2.666 22.545-6.315 22.537-17.842l.221-37.141c.051-8.556-5.726-15.876-14.047-17.803-24.792-5.742-50.695 4.865-64.454 26.393-14.929 23.356-23.258 54.247-23.453 86.981-.195 32.751 7.776 63.568 22.445 86.775 13.644 21.585 39.828 31.7 64.281 25.735h.002c8.247-2.003 14.042-9.32 14.093-17.793l.221-37.136c.144-11.686-11.224-20.569-22.49-17.754l-12.29 2.983c-1.553.379-3.107-.378-3.691-1.799-5.129-12.479-7.821-25.628-8.001-39.085-.199-14.861 2.657-29.439 8.49-43.332.639-1.516 2.312-2.381 3.886-2.019zm-27.373 45.555c.206 15.353 3.276 30.354 9.126 44.586 3.421 8.325 12.297 12.816 21.105 10.673l12.289-2.983c2.356-.448 3.86.749 3.951 3.088l-.221 37.136c-.009 1.548-1.117 2.938-2.635 3.307-18.636 4.527-37.953-3.179-48.062-19.173-13.156-20.814-20.303-48.754-20.125-78.672.178-29.938 7.668-57.992 21.091-78.993 10.396-16.265 30.007-24.131 48.432-19.857 1.44.334 2.439 1.608 2.431 3.1l-.221 37.141c-.109 2.452-1.769 3.767-4.153 3.318l-12.25-2.837c-8.742-2.021-17.616 2.53-21.099 10.828-6.636 15.803-9.886 32.402-9.659 49.338z" fill="#778899"></path></g></svg>