
<svg id="icons" viewBox="0 0 60 60" xmlns="http://www.w3.org/2000/svg">
<rect fill="#4f4f60" height="58" rx="4" width="36" x="1" y="1" style="fill: rgb(107, 107, 118);">
</rect>
<path d="m33 6v48a1 1 0 0 1 -1 1h-26a1 1 0 0 1 -1-1v-48a1 1 0 0 1 1-1h3a1 1 0 0 1 1 1v1a2.006 2.006 0 0 0 2 2h14a2.006 2.006 0 0 0 2-2v-1a1 1 0 0 1 1-1h3a1 1 0 0 1 1 1z" fill="#61c9e5">
</path>
<path d="m58.183 45.4-4.8 4.813a5.733 5.733 0 0 1 -3.256 1.653c-3.524.493-11.116.037-20.569-9.426s-9.92-17.04-9.427-20.566a5.733 5.733 0 0 1 1.653-3.256l4.813-4.8a2.781 2.781 0 0 1 3.937 0l5.935 5.921a2.823 2.823 0 0 1 0 3.951l-4.807 4.81s-.991 2.961 3.952 7.89 7.89 3.952 7.89 3.952l4.807-4.807a2.823 2.823 0 0 1 3.951 0l5.921 5.935a2.781 2.781 0 0 1 0 3.93z" fill="#3f9979" style="fill: rgb(240, 116, 0);"></path>
<path d="m59 13v12a2.006 2.006 0 0 1 -2 2h-6.71l-4.33 3.71a1.186 1.186 0 0 1 -1.96-.9v-2.81h-1a2.006 2.006 0 0 1 -2-2v-12a2.006 2.006 0 0 1 2-2h14a2.006 2.006 0 0 1 2 2z" fill="#3f9979" style="fill: rgb(240, 116, 0);"></path>
<path d="m16 6h-1a1 1 0 0 1 0-2h1a1 1 0 0 1 0 2z" fill="#353544"></path>
<path d="m9 16a1 1 0 0 1 -.707-1.707l2-2a1 1 0 0 1 1.414 1.414l-2 2a1 1 0 0 1 -.707.293z" fill="#a1edff">
</path><path d="m9 22a1 1 0 0 1 -.707-1.707l8-8a1 1 0 0 1 1.414 1.414l-8 8a1 1 0 0 1 -.707.293z" fill="#a1edff">
</path><path d="m23 6h-3a1 1 0 0 1 0-2h3a1 1 0 0 1 0 2z" fill="#353544"></path><g fill="#40826a">
<path d="m55 17h-10a1 1 0 0 1 0-2h10a1 1 0 0 1 0 2z" fill="#40826a" style="fill: rgb(255, 255, 255);">
</path><path d="m53 22h-8a1 1 0 0 1 0-2h8a1 1 0 0 1 0 2z" fill="#40826a" style="fill: rgb(255, 255, 255);"></path>
</g></svg>