<svg id="Layer_1" enable-background="new 0 0 69 69" viewBox="0 0 69 69" xmlns="http://www.w3.org/2000/svg">
<g><path d="m57.05676 26.25827-3.71573 7.49632 4.99296 6.81084 7.16633-14.45774z" fill="#dae8f0" style="fill: rgb(240, 227, 219);"></path>
<g><path d="m30.03504 15.67231c-.68763 1.38238-2.35653 1.93392-3.72457 1.25346-1.38238-.68046-1.94109-2.34219-1.25346-3.7174.68046-1.37521 2.34215-1.94104 3.72457-1.26063 1.36804.68045 1.93387 2.35653 1.25346 3.72457z" fill="#5bbe88">
</path></g><path d="m10.10678 33.33656v19.63468l-6.60646 3.61836v-26.87139z" fill="#dae8f0" style="fill: rgb(240, 227, 219);"></path>
<path d="m66.3449 25.57264c-.18652-.29492-.5166-.45117-.8623-.46484l-6.79993.12109.32141-.64844c.74322-1.49656.12676-3.30653-1.3623-4.04199l-31.26758-15.49903c-.7207-.3584-1.53906-.41211-2.30371-.15625-.76367.25781-1.38184.79688-1.73926 1.51953l-5.82031 11.74023c-.35742.72168-.41211 1.54004-.1543 2.30273.25684.76367.7959 1.38086 1.51758 1.73828l16.11767 7.98987-6.78222 6.87921c-.32111-.05292-.64795-.08881-.98389-.08881-1.96838 0-3.81897.9649-4.9707 2.53809h-10.14844v-6.16602c0-.36523-.19922-.70117-.51953-.87695l-6.08691-3.33362v-6.09312c0-.55273-.44727-1-1-1s-1 .44727-1 1v40.24316c0 .55273.44727 1 1 1s1-.44727 1-1v-6.09412l6.08691-3.33362c.32031-.17578.51953-.51172.51953-.87695v-6.16992h10.14874c1.15411 1.57477 3.00354 2.53809 4.9704 2.53809 3.41406 0 6.19238-2.77344 6.19238-6.18262 0-.31641-.03009-.61951-.07446-.91229l8.53455-8.6568 8.2655 4.09741c1.50105.74198 3.30743.11479 4.04102-1.36328l.32214-.6499 4.02063 5.48486c.18945.25879.48926.40918.80664.40918.02832 0 .05762-.00098.08594-.00391.34766-.03027.65527-.23926.80957-.55176l7.16602-14.45801c.15527-.31347.13574-.68358-.05079-.97948zm-57.23828 26.80566-4.60645 2.52344v-23.49609l4.60645 2.52344zm2-10.87598h9.16437c-.15002.53674-.22784 1.09302-.22784 1.6543 0 .56201.07623 1.11548.22272 1.64453h-9.15924v-3.29883zm15.11914 5.83692c-2.26321 0-4.18262-1.86329-4.18262-4.18262 0-2.27812 1.86778-4.19238 4.18262-4.19238 2.34082 0 4.19238 1.90695 4.19238 4.19238.00001 2.30664-1.88085 4.18262-4.19238 4.18262zm5.40064-7.21582c-.54681-.97955-1.35388-1.78766-2.3277-2.34082l6.57959-6.67364 3.11353 1.54346zm18.40503-4.23047-31.26856-15.50098c-.24316-.12012-.4248-.32813-.51172-.58496-.08691-.25781-.06836-.5332.05176-.77539l5.82031-11.74121c.00098 0 .00098-.00098.00098-.00098.12012-.24316.32813-.4248.58496-.51172.10645-.03516.2168-.05371.3252-.05371.15527 0 .30859.03613.45117.10645l31.26855 15.5c.50341.24867.70806.8571.45898 1.36133-1.00844 2.03465-4.36026 8.79736-5.81934 11.74121-.24901.50097-.85741.70801-1.36229.45996zm8.13671 2.75488-3.66107-4.99408c.05578-.11252 3.38792-6.83438 3.17572-6.40631l6.19141-.11035z" fill="#626975" style="fill: rgb(115, 115, 115);"></path>
<g><path d="m26.22135 45.47193c-.81264 0-1.54836-.42137-1.96638-1.12866-.24747-.40631-.34445-.76582-.34445-1.18217 0-.51835.17724-.92132.32606-1.17046.43642-.73739 1.17214-1.15876 1.98477-1.15876.25249 0 .41133.03511.48491.05518.92634.24078 1.56842.88955 1.76071 1.68547l.04515.17557c.01171.04348.03846.17223.03846.41301-.00001 1.27412-1.04507 2.31082-2.32923 2.31082z" fill="#f69a8b" style="fill: rgb(255, 115, 0);"></path>
</g></g></svg>