<svg id="Capa_1" enable-background="new 0 0 60 60" viewBox="0 0 60 60" xmlns="http://www.w3.org/2000/svg">
<path id="Shape" d="m30 0c-16.569 0-30 13.431-30 30s13.431 30 30 30 30-13.431 30-30c-.019-16.561-13.439-29.981-30-30zm0 58c-15.464 0-28-12.536-28-28s12.536-28 28-28 28 12.536 28 28c-.018 15.457-12.543 27.982-28 28z"></path>
<path d="m44.068 50.654c9.07-6.172 13.055-17.537 9.824-28.022s-12.921-17.636-23.892-17.632c-7.174.003-14.002 3.084-18.75 8.463-.366.414-.326 1.046.088 1.412s1.046.326 1.412-.088c5.793-6.573 14.818-9.282 23.274-6.987s14.872 9.195 16.548 17.795-1.682 17.404-8.658 22.705c-.864-1.95-2.272-3.608-4.056-4.777 1.313-.686 2.138-2.042 2.142-3.523v-17c0-6.627-5.373-12-12-12s-12 5.373-12 12v17c.005 1.48.83 2.836 2.142 3.521-1.784 1.169-3.192 2.829-4.056 4.779-9.097-6.908-11.743-19.448-6.212-29.443.248-.48.069-1.071-.403-1.333s-1.068-.101-1.345.363c-6.254 11.299-2.87 25.502 7.807 32.767 1.784 1.236 6.789 4.356 13.915 4.4 7.309.046 12.449-3.173 14.22-4.4zm-4.068-23.895c-.028.371-.135.731-.312 1.058-.168.337-.312.639-.406.89-.275.653-.411 1.356-.4 2.065.013.173-.034.346-.135.488-.2.139-.443.201-.685.175-.414 0-.786.255-.934.642-.007.019-.72 1.869-1.425 3.27-.306.557-.652 1.092-1.034 1.6-.943 1.332-2.076 2.52-3.361 3.526-.062.052-.131.107-.194.153-.658.497-1.567.497-2.225 0l-.234-.187c-1.271-.997-2.389-2.174-3.321-3.493-.38-.51-.726-1.045-1.036-1.6-.691-1.39-1.405-3.244-1.412-3.263-.148-.387-.52-.642-.934-.642-.243.025-.486-.037-.688-.174-.1-.143-.146-.316-.132-.49.008-.702-.128-1.399-.4-2.047-.1-.268-.245-.57-.414-.909-.42-.838-.367-1.46-.127-1.7.073-.077.175-.121.282-.121.109.004.215.031.312.08.146.063.303.097.462.1 1.224-.079 2.429-.342 3.574-.78 2.029-.718 3.821-1.981 5.179-3.65 2.191 2.608 5.35 4.211 8.748 4.439.166.012.332-.023.479-.1.182-.121.422-.109.592.029.137.169.201.385.181.602zm-13 14.9c.143.119.282.247.429.36l.263.209c1.366 1.03 3.249 1.03 4.615 0 .1-.074.209-.16.266-.211.146-.114.284-.24.427-.359v1.342c0 1.657-1.343 3-3 3s-3-1.343-3-3zm11 .341h-3v-2.28c.459-.513.89-1.049 1.293-1.607.447-.593.849-1.219 1.2-1.873.5-.994.992-2.171 1.27-2.86.458-.082.885-.285 1.237-.589v7.209c0 1.105-.895 2-2 2zm-8-29c2.653-.002 5.197 1.051 7.073 2.927s2.929 4.42 2.927 7.073v1.051c-.466-.086-.946-.043-1.389.124-3.166-.296-6.022-2.024-7.754-4.69-.194-.282-.515-.451-.857-.451s-.663.169-.857.451c-1.154 1.885-2.925 3.311-5.012 4.038-.883.332-1.805.548-2.743.643-.444-.163-.924-.202-1.388-.114v-1.052c.006-5.52 4.48-9.994 10-10zm-10 19.788c.354.307.785.512 1.246.593.277.688.768 1.865 1.264 2.863.358.648.759 1.272 1.2 1.867.402.558.832 1.096 1.29 1.609v2.28h-3c-1.105 0-2-.895-2-2zm14.615 12.087c.122-.282.217-.575.285-.875h.055c2.559 0 5.718 1.694 7.3 5.455-1.726 1.09-6.093 3.528-12.179 3.545-6.16.017-10.582-2.456-12.305-3.545 1.561-3.761 4.72-5.455 7.279-5.455h.055c.066.3.159.593.279.875.722 1.801 2.387 3.038 4.268 3.168 2.115.147 4.134-1.13 4.963-3.168z"></path></svg>